<svg width="134" height="37" viewBox="0 0 134 37" fill="none" xmlns="http://www.w3.org/2000/svg">
<path d="M3.648 21C3.296 21 3 20.88 2.76 20.64C2.52 20.4 2.4 20.104 2.4 19.752V3.504C2.4 3.136 2.52 2.84 2.76 2.616C3 2.376 3.296 2.256 3.648 2.256H9.384C10.472 2.256 11.424 2.472 12.24 2.904C13.072 3.32 13.72 3.904 14.184 4.656C14.664 5.408 14.904 6.272 14.904 7.248C14.904 8.032 14.688 8.744 14.256 9.384C13.84 10.008 13.264 10.504 12.528 10.872C13.584 11.128 14.432 11.632 15.072 12.384C15.712 13.136 16.032 14.12 16.032 15.336C16.032 16.44 15.768 17.416 15.24 18.264C14.728 19.112 14.008 19.784 13.08 20.28C12.152 20.76 11.088 21 9.888 21H3.648ZM4.896 18.696H9.888C10.624 18.696 11.272 18.568 11.832 18.312C12.392 18.056 12.832 17.68 13.152 17.184C13.472 16.688 13.632 16.072 13.632 15.336C13.632 14.648 13.472 14.08 13.152 13.632C12.832 13.184 12.392 12.848 11.832 12.624C11.272 12.384 10.624 12.264 9.888 12.264H4.896V18.696ZM4.896 9.96H9.384C10.296 9.96 11.04 9.736 11.616 9.288C12.208 8.84 12.504 8.16 12.504 7.248C12.504 6.336 12.208 5.664 11.616 5.232C11.04 4.784 10.296 4.56 9.384 4.56H4.896V9.96ZM23.2718 21C22.9198 21 22.6238 20.88 22.3838 20.64C22.1438 20.4 22.0238 20.104 22.0238 19.752V3.504C22.0238 3.136 22.1438 2.84 22.3838 2.616C22.6238 2.376 22.9198 2.256 23.2718 2.256H27.5918C28.7918 2.256 29.8558 2.512 30.7838 3.024C31.7118 3.52 32.4318 4.208 32.9438 5.088C33.4718 5.968 33.7358 6.992 33.7358 8.16C33.7358 9.248 33.4718 10.216 32.9438 11.064C32.4318 11.912 31.7118 12.576 30.7838 13.056C29.8558 13.536 28.7918 13.776 27.5918 13.776H24.5198V19.752C24.5198 20.104 24.3998 20.4 24.1598 20.64C23.9358 20.88 23.6398 21 23.2718 21ZM33.2318 21C33.0078 21 32.7998 20.952 32.6078 20.856C32.4318 20.76 32.2798 20.608 32.1518 20.4L27.8318 13.44L30.2558 12.744L34.1918 19.08C34.4798 19.544 34.5198 19.984 34.3118 20.4C34.1038 20.8 33.7438 21 33.2318 21ZM24.5198 11.472H27.5918C28.3278 11.472 28.9758 11.336 29.5358 11.064C30.0958 10.776 30.5358 10.384 30.8558 9.888C31.1758 9.376 31.3358 8.8 31.3358 8.16C31.3358 7.456 31.1758 6.832 30.8558 6.288C30.5358 5.744 30.0958 5.32 29.5358 5.016C28.9758 4.712 28.3278 4.56 27.5918 4.56H24.5198V11.472ZM40.7158 21C40.3638 21 40.0678 20.88 39.8278 20.64C39.5878 20.4 39.4678 20.104 39.4678 19.752V3.504C39.4678 3.136 39.5878 2.84 39.8278 2.616C40.0678 2.376 40.3638 2.256 40.7158 2.256C41.0838 2.256 41.3798 2.376 41.6038 2.616C41.8438 2.84 41.9638 3.136 41.9638 3.504V19.752C41.9638 20.104 41.8438 20.4 41.6038 20.64C41.3798 20.88 41.0838 21 40.7158 21ZM50.2849 21C49.9329 21 49.6369 20.88 49.3969 20.64C49.1569 20.4 49.0369 20.104 49.0369 19.752V3.504C49.0369 3.136 49.1569 2.84 49.3969 2.616C49.6369 2.376 49.9329 2.256 50.2849 2.256H54.6289C56.0049 2.256 57.2529 2.488 58.3729 2.952C59.5089 3.4 60.4929 4.048 61.3249 4.896C62.1569 5.728 62.7969 6.712 63.2449 7.848C63.6929 8.984 63.9169 10.24 63.9169 11.616C63.9169 12.992 63.6929 14.256 63.2449 15.408C62.7969 16.544 62.1569 17.536 61.3249 18.384C60.4929 19.216 59.5089 19.864 58.3729 20.328C57.2529 20.776 56.0049 21 54.6289 21H50.2849ZM51.5329 18.792H54.6289C55.9729 18.792 57.1569 18.488 58.1809 17.88C59.2209 17.256 60.0369 16.408 60.6289 15.336C61.2209 14.248 61.5169 13.008 61.5169 11.616C61.5169 10.208 61.2209 8.968 60.6289 7.896C60.0369 6.824 59.2209 5.984 58.1809 5.376C57.1569 4.768 55.9729 4.464 54.6289 4.464H51.5329V18.792ZM78.045 21.24C76.749 21.24 75.533 21 74.397 20.52C73.277 20.024 72.293 19.344 71.445 18.48C70.613 17.6 69.957 16.576 69.477 15.408C69.013 14.24 68.781 12.976 68.781 11.616C68.781 10.272 69.013 9.024 69.477 7.872C69.957 6.704 70.613 5.688 71.445 4.824C72.293 3.944 73.277 3.256 74.397 2.76C75.517 2.264 76.733 2.016 78.045 2.016C79.277 2.016 80.333 2.176 81.213 2.496C82.109 2.816 83.005 3.344 83.901 4.08C84.029 4.176 84.125 4.28 84.189 4.392C84.269 4.488 84.317 4.592 84.333 4.704C84.365 4.8 84.381 4.92 84.381 5.064C84.381 5.368 84.269 5.624 84.045 5.832C83.837 6.04 83.573 6.152 83.253 6.168C82.949 6.184 82.661 6.08 82.389 5.856C81.797 5.344 81.181 4.952 80.541 4.68C79.917 4.408 79.085 4.272 78.045 4.272C77.101 4.272 76.213 4.464 75.381 4.848C74.549 5.232 73.813 5.76 73.173 6.432C72.549 7.104 72.061 7.888 71.709 8.784C71.357 9.664 71.181 10.608 71.181 11.616C71.181 12.64 71.357 13.6 71.709 14.496C72.061 15.376 72.549 16.152 73.173 16.824C73.813 17.496 74.549 18.024 75.381 18.408C76.213 18.776 77.101 18.96 78.045 18.96C78.861 18.96 79.629 18.824 80.349 18.552C81.085 18.264 81.789 17.872 82.461 17.376C82.749 17.168 83.029 17.08 83.301 17.112C83.589 17.128 83.829 17.24 84.021 17.448C84.213 17.64 84.309 17.912 84.309 18.264C84.309 18.424 84.277 18.584 84.213 18.744C84.165 18.888 84.069 19.024 83.925 19.152C83.077 19.856 82.157 20.384 81.165 20.736C80.173 21.072 79.133 21.24 78.045 21.24ZM84.309 18.264L81.909 17.784V13.488H78.597C78.245 13.488 77.949 13.384 77.709 13.176C77.469 12.968 77.349 12.704 77.349 12.384C77.349 12.064 77.469 11.8 77.709 11.592C77.949 11.384 78.245 11.28 78.597 11.28H83.085C83.453 11.28 83.749 11.4 83.973 11.64C84.197 11.864 84.309 12.16 84.309 12.528V18.264ZM91.8293 21C91.4773 21 91.1813 20.88 90.9413 20.64C90.7013 20.4 90.5813 20.104 90.5813 19.752V3.504C90.5813 3.136 90.7013 2.84 90.9413 2.616C91.1813 2.376 91.4773 2.256 91.8293 2.256H102.677C103.045 2.256 103.341 2.368 103.565 2.592C103.789 2.8 103.901 3.08 103.901 3.432C103.901 3.768 103.789 4.04 103.565 4.248C103.341 4.456 103.045 4.56 102.677 4.56H93.0773V10.392H99.9653C100.333 10.392 100.629 10.504 100.853 10.728C101.077 10.936 101.189 11.208 101.189 11.544C101.189 11.88 101.077 12.16 100.853 12.384C100.629 12.592 100.333 12.696 99.9653 12.696H93.0773V18.696H102.677C103.045 18.696 103.341 18.8 103.565 19.008C103.789 19.216 103.901 19.488 103.901 19.824C103.901 20.176 103.789 20.464 103.565 20.688C103.341 20.896 103.045 21 102.677 21H91.8293Z" fill="#646566"/>
<path d="M110.05 21C109.698 21 109.402 20.88 109.162 20.64C108.938 20.4 108.826 20.112 108.826 19.776C108.826 19.424 108.938 19.136 109.162 18.912L115.978 10.944C116.458 10.384 116.826 9.856 117.082 9.36C117.354 8.864 117.49 8.392 117.49 7.944C117.49 7.24 117.37 6.632 117.13 6.12C116.89 5.608 116.546 5.216 116.098 4.944C115.65 4.656 115.114 4.512 114.49 4.512C113.882 4.512 113.33 4.672 112.834 4.992C112.354 5.296 111.97 5.712 111.682 6.24C111.41 6.752 111.274 7.32 111.274 7.944C111.274 8.264 111.154 8.544 110.914 8.784C110.69 9.024 110.402 9.144 110.05 9.144C109.714 9.144 109.426 9.024 109.186 8.784C108.946 8.544 108.826 8.264 108.826 7.944C108.826 6.856 109.074 5.888 109.57 5.04C110.066 4.176 110.738 3.496 111.586 3C112.45 2.504 113.418 2.256 114.49 2.256C115.578 2.256 116.522 2.488 117.322 2.952C118.122 3.416 118.738 4.072 119.17 4.92C119.618 5.768 119.842 6.776 119.842 7.944C119.842 8.456 119.73 8.976 119.506 9.504C119.298 10.032 119.026 10.536 118.69 11.016C118.37 11.496 118.042 11.928 117.706 12.312L112.21 18.552H118.93C119.282 18.552 119.578 18.68 119.818 18.936C120.058 19.176 120.178 19.456 120.178 19.776C120.178 20.112 120.058 20.4 119.818 20.64C119.578 20.88 119.282 21 118.93 21H110.05Z" fill="#4A90C5"/>
<path d="M6.576 35.176C5.894 35.176 5.289 35.0477 4.761 34.791C4.24033 34.5343 3.83333 34.1787 3.54 33.724C3.24667 33.262 3.1 32.7377 3.1 32.151V26.882C3.1 26.7427 3.144 26.629 3.232 26.541C3.32 26.453 3.43367 26.409 3.573 26.409C3.71233 26.409 3.826 26.453 3.914 26.541C4.002 26.629 4.046 26.7427 4.046 26.882V32.151C4.046 32.569 4.15233 32.9393 4.365 33.262C4.57767 33.5847 4.87467 33.8377 5.256 34.021C5.64467 34.2043 6.08467 34.296 6.576 34.296C7.06 34.296 7.48533 34.2043 7.852 34.021C8.226 33.8377 8.51933 33.5847 8.732 33.262C8.94467 32.9393 9.051 32.569 9.051 32.151V26.882C9.051 26.7427 9.095 26.629 9.183 26.541C9.27833 26.453 9.392 26.409 9.524 26.409C9.67067 26.409 9.78433 26.453 9.865 26.541C9.953 26.629 9.997 26.7427 9.997 26.882V32.151C9.997 32.7377 9.85033 33.262 9.557 33.724C9.26367 34.1787 8.86033 34.5343 8.347 34.791C7.83367 35.0477 7.24333 35.176 6.576 35.176ZM18.1716 35C18.0323 35 17.9186 34.956 17.8306 34.868C17.7426 34.78 17.6986 34.6663 17.6986 34.527V26.882C17.6986 26.7427 17.7426 26.629 17.8306 26.541C17.9186 26.453 18.0323 26.409 18.1716 26.409C18.3183 26.409 18.4393 26.4677 18.5346 26.585L23.6496 33.328V26.882C23.6496 26.7427 23.6936 26.629 23.7816 26.541C23.8696 26.453 23.9833 26.409 24.1226 26.409C24.2546 26.409 24.3646 26.453 24.4526 26.541C24.548 26.629 24.5956 26.7427 24.5956 26.882V34.527C24.5956 34.6663 24.548 34.78 24.4526 34.868C24.3646 34.956 24.2546 35 24.1226 35C24.0566 35 23.9906 34.989 23.9246 34.967C23.8586 34.9377 23.8036 34.8937 23.7596 34.835L18.6446 28.092V34.527C18.6446 34.6663 18.597 34.78 18.5016 34.868C18.4136 34.956 18.3036 35 18.1716 35ZM32.7703 35C32.6309 35 32.5173 34.956 32.4293 34.868C32.3413 34.78 32.2973 34.6663 32.2973 34.527V26.882C32.2973 26.7427 32.3413 26.629 32.4293 26.541C32.5173 26.453 32.6309 26.409 32.7703 26.409C32.9096 26.409 33.0233 26.453 33.1113 26.541C33.1993 26.629 33.2433 26.7427 33.2433 26.882V34.527C33.2433 34.6663 33.1993 34.78 33.1113 34.868C33.0233 34.956 32.9096 35 32.7703 35ZM43.8267 35C43.6287 35 43.4821 34.901 43.3867 34.703L40.1417 27.135C40.0537 26.915 40.0464 26.739 40.1197 26.607C40.1931 26.475 40.3251 26.409 40.5157 26.409C40.7211 26.409 40.8641 26.508 40.9447 26.706L43.9257 33.823H43.7167L46.6977 26.717C46.7491 26.5997 46.8077 26.519 46.8737 26.475C46.9471 26.431 47.0387 26.409 47.1487 26.409C47.3394 26.409 47.4677 26.4787 47.5337 26.618C47.5997 26.75 47.5961 26.904 47.5227 27.08L44.2447 34.703C44.2007 34.8057 44.1421 34.8827 44.0687 34.934C44.0027 34.978 43.9221 35 43.8267 35ZM54.8562 35C54.7169 35 54.6032 34.956 54.5152 34.868C54.4272 34.78 54.3832 34.6663 54.3832 34.527V26.882C54.3832 26.7427 54.4272 26.629 54.5152 26.541C54.6032 26.453 54.7169 26.409 54.8562 26.409H59.9602C60.0922 26.409 60.2022 26.453 60.2902 26.541C60.3782 26.6217 60.4222 26.728 60.4222 26.86C60.4222 26.9847 60.3782 27.091 60.2902 27.179C60.2022 27.2597 60.0922 27.3 59.9602 27.3H55.3292V30.226H58.6842C58.8235 30.226 58.9372 30.27 59.0252 30.358C59.1132 30.446 59.1572 30.5523 59.1572 30.677C59.1572 30.809 59.1132 30.919 59.0252 31.007C58.9372 31.0877 58.8235 31.128 58.6842 31.128H55.3292V34.109H59.9602C60.0922 34.109 60.2022 34.153 60.2902 34.241C60.3782 34.3217 60.4222 34.4243 60.4222 34.549C60.4222 34.681 60.3782 34.791 60.2902 34.879C60.2022 34.9597 60.0922 35 59.9602 35H54.8562ZM67.9939 35C67.8546 35 67.7409 34.956 67.6529 34.868C67.5649 34.78 67.5209 34.6663 67.5209 34.527V26.882C67.5209 26.7427 67.5649 26.629 67.6529 26.541C67.7409 26.453 67.8546 26.409 67.9939 26.409H70.0289C70.5642 26.409 71.0409 26.5227 71.4589 26.75C71.8842 26.9773 72.2142 27.2927 72.4489 27.696C72.6909 28.092 72.8119 28.554 72.8119 29.082C72.8119 29.5807 72.6909 30.0243 72.4489 30.413C72.2142 30.8017 71.8842 31.106 71.4589 31.326C71.0409 31.546 70.5642 31.656 70.0289 31.656H68.4669V34.527C68.4669 34.6663 68.4229 34.78 68.3349 34.868C68.2469 34.956 68.1332 35 67.9939 35ZM72.5809 35C72.4856 35 72.4049 34.9817 72.3389 34.945C72.2729 34.901 72.2179 34.8387 72.1739 34.758L70.0949 31.447L71.0299 31.205L72.9549 34.274C73.0722 34.4573 73.0906 34.626 73.0099 34.78C72.9366 34.9267 72.7936 35 72.5809 35ZM68.4669 30.754H70.0289C70.3882 30.754 70.7072 30.6843 70.9859 30.545C71.2719 30.3983 71.4956 30.2003 71.6569 29.951C71.8182 29.6943 71.8989 29.4047 71.8989 29.082C71.8989 28.73 71.8182 28.422 71.6569 28.158C71.4956 27.8867 71.2719 27.6777 70.9859 27.531C70.7072 27.377 70.3882 27.3 70.0289 27.3H68.4669V30.754ZM82.5257 35.11C82.0563 35.11 81.6163 35.0403 81.2057 34.901C80.8023 34.7617 80.4503 34.5673 80.1497 34.318C79.849 34.0613 79.6253 33.7643 79.4787 33.427C79.4127 33.3023 79.409 33.185 79.4677 33.075C79.5337 32.965 79.64 32.8917 79.7867 32.855C79.8967 32.8257 80.0067 32.8403 80.1167 32.899C80.2267 32.9503 80.3073 33.0347 80.3587 33.152C80.4687 33.3573 80.6263 33.5443 80.8317 33.713C81.0443 33.8743 81.2937 34.0027 81.5797 34.098C81.873 34.186 82.1883 34.23 82.5257 34.23C82.907 34.23 83.248 34.1677 83.5487 34.043C83.8493 33.9183 84.0877 33.7387 84.2637 33.504C84.4397 33.2693 84.5277 32.9833 84.5277 32.646C84.5277 32.2207 84.3663 31.8503 84.0437 31.535C83.721 31.2123 83.2077 31.0107 82.5037 30.93C81.631 30.8273 80.9453 30.5597 80.4467 30.127C79.9553 29.6943 79.7097 29.159 79.7097 28.521C79.7097 28.0663 79.8343 27.674 80.0837 27.344C80.333 27.0067 80.674 26.75 81.1067 26.574C81.5393 26.3907 82.0307 26.299 82.5807 26.299C82.9987 26.299 83.3727 26.365 83.7027 26.497C84.0327 26.6217 84.3187 26.7903 84.5607 27.003C84.81 27.2157 85.0153 27.454 85.1767 27.718C85.2647 27.85 85.294 27.9783 85.2647 28.103C85.2427 28.2203 85.1767 28.312 85.0667 28.378C84.9493 28.4367 84.8247 28.4477 84.6927 28.411C84.568 28.367 84.4727 28.2863 84.4067 28.169C84.2967 27.993 84.1573 27.8317 83.9887 27.685C83.8273 27.531 83.6293 27.41 83.3947 27.322C83.16 27.234 82.8813 27.1863 82.5587 27.179C81.994 27.179 81.532 27.2963 81.1727 27.531C80.8133 27.7657 80.6337 28.114 80.6337 28.576C80.6337 28.8107 80.696 29.0343 80.8207 29.247C80.9527 29.4523 81.169 29.6283 81.4697 29.775C81.7777 29.9217 82.1957 30.0317 82.7237 30.105C83.633 30.2223 84.315 30.4973 84.7697 30.93C85.2243 31.3627 85.4517 31.931 85.4517 32.635C85.4517 33.0383 85.3747 33.394 85.2207 33.702C85.074 34.01 84.865 34.2703 84.5937 34.483C84.3223 34.6883 84.007 34.846 83.6477 34.956C83.2957 35.0587 82.9217 35.11 82.5257 35.11ZM93.2058 35C93.0665 35 92.9528 34.956 92.8648 34.868C92.7768 34.78 92.7328 34.6663 92.7328 34.527V26.882C92.7328 26.7427 92.7768 26.629 92.8648 26.541C92.9528 26.453 93.0665 26.409 93.2058 26.409C93.3451 26.409 93.4588 26.453 93.5468 26.541C93.6348 26.629 93.6788 26.7427 93.6788 26.882V34.527C93.6788 34.6663 93.6348 34.78 93.5468 34.868C93.4588 34.956 93.3451 35 93.2058 35ZM103.888 35C103.756 35 103.643 34.956 103.547 34.868C103.459 34.7727 103.415 34.659 103.415 34.527V26.409H104.361V34.527C104.361 34.659 104.317 34.7727 104.229 34.868C104.141 34.956 104.028 35 103.888 35ZM100.885 27.278C100.753 27.278 100.647 27.2377 100.566 27.157C100.486 27.069 100.445 26.9663 100.445 26.849C100.445 26.717 100.486 26.6107 100.566 26.53C100.647 26.4493 100.753 26.409 100.885 26.409H106.902C107.034 26.409 107.141 26.4493 107.221 26.53C107.302 26.6107 107.342 26.717 107.342 26.849C107.342 26.9663 107.302 27.069 107.221 27.157C107.141 27.2377 107.034 27.278 106.902 27.278H100.885ZM116.607 35C116.482 35 116.372 34.956 116.277 34.868C116.181 34.7727 116.134 34.659 116.134 34.527V31.832L113.164 27.146C113.083 27.0213 113.05 26.904 113.065 26.794C113.087 26.684 113.138 26.5923 113.219 26.519C113.307 26.4457 113.409 26.409 113.527 26.409C113.629 26.409 113.71 26.431 113.769 26.475C113.827 26.519 113.882 26.5777 113.934 26.651L116.849 31.326H116.398L119.324 26.651C119.375 26.5703 119.434 26.5117 119.5 26.475C119.566 26.431 119.65 26.409 119.753 26.409C119.863 26.409 119.954 26.4493 120.028 26.53C120.101 26.6033 120.145 26.6987 120.16 26.816C120.174 26.926 120.145 27.036 120.072 27.146L117.08 31.832V34.527C117.08 34.659 117.032 34.7727 116.937 34.868C116.849 34.956 116.739 35 116.607 35Z" fill="#646566"/>
</svg>
