<svg width="48" height="20" viewBox="0 0 48 20" fill="none" xmlns="http://www.w3.org/2000/svg">
<path d="M1.648 19C1.296 19 1 18.88 0.76 18.64C0.52 18.4 0.4 18.104 0.4 17.752V1.504C0.4 1.136 0.52 0.839999 0.76 0.615999C1 0.375999 1.296 0.256 1.648 0.256H7.384C8.472 0.256 9.424 0.472 10.24 0.904C11.072 1.32 11.72 1.904 12.184 2.656C12.664 3.408 12.904 4.272 12.904 5.248C12.904 6.032 12.688 6.744 12.256 7.384C11.84 8.008 11.264 8.504 10.528 8.872C11.584 9.128 12.432 9.632 13.072 10.384C13.712 11.136 14.032 12.12 14.032 13.336C14.032 14.44 13.768 15.416 13.24 16.264C12.728 17.112 12.008 17.784 11.08 18.28C10.152 18.76 9.088 19 7.888 19H1.648ZM2.896 16.696H7.888C8.624 16.696 9.272 16.568 9.832 16.312C10.392 16.056 10.832 15.68 11.152 15.184C11.472 14.688 11.632 14.072 11.632 13.336C11.632 12.648 11.472 12.08 11.152 11.632C10.832 11.184 10.392 10.848 9.832 10.624C9.272 10.384 8.624 10.264 7.888 10.264H2.896V16.696ZM2.896 7.96H7.384C8.296 7.96 9.04 7.736 9.616 7.288C10.208 6.84 10.504 6.16 10.504 5.248C10.504 4.336 10.208 3.664 9.616 3.232C9.04 2.784 8.296 2.56 7.384 2.56H2.896V7.96ZM39.7011 19.384C38.1651 19.384 36.8051 19.104 35.6211 18.544C34.4371 17.968 33.5091 17.176 32.8371 16.168C32.1811 15.16 31.8531 14.008 31.8531 12.712V1.504C31.8531 1.136 31.9731 0.839999 32.2131 0.615999C32.4531 0.375999 32.7491 0.256 33.1011 0.256C33.4691 0.256 33.7651 0.375999 33.9891 0.615999C34.2291 0.839999 34.3491 1.136 34.3491 1.504V12.712C34.3491 13.576 34.5731 14.344 35.0211 15.016C35.4851 15.672 36.1171 16.192 36.9171 16.576C37.7331 16.944 38.6611 17.128 39.7011 17.128C40.7091 17.128 41.5971 16.944 42.3651 16.576C43.1491 16.192 43.7571 15.672 44.1891 15.016C44.6371 14.344 44.8611 13.576 44.8611 12.712V1.504C44.8611 1.136 44.9811 0.839999 45.2211 0.615999C45.4611 0.375999 45.7571 0.256 46.1091 0.256C46.4771 0.256 46.7731 0.375999 46.9971 0.615999C47.2211 0.839999 47.3331 1.136 47.3331 1.504V12.712C47.3331 14.008 47.0051 15.16 46.3491 16.168C45.7091 17.176 44.8131 17.968 43.6611 18.544C42.5091 19.104 41.1891 19.384 39.7011 19.384Z" fill="#646566"/>
<path d="M18.1278 19C17.7758 19 17.4798 18.88 17.2398 18.64C17.0158 18.4 16.9038 18.112 16.9038 17.776C16.9038 17.424 17.0158 17.136 17.2398 16.912L24.0558 8.944C24.5358 8.384 24.9038 7.856 25.1598 7.36C25.4318 6.864 25.5678 6.392 25.5678 5.944C25.5678 5.24 25.4478 4.632 25.2078 4.12C24.9678 3.608 24.6238 3.216 24.1758 2.944C23.7278 2.656 23.1918 2.512 22.5678 2.512C21.9598 2.512 21.4078 2.672 20.9118 2.992C20.4318 3.296 20.0478 3.712 19.7598 4.24C19.4878 4.752 19.3518 5.32 19.3518 5.944C19.3518 6.264 19.2318 6.544 18.9918 6.784C18.7678 7.024 18.4798 7.144 18.1278 7.144C17.7918 7.144 17.5038 7.024 17.2638 6.784C17.0238 6.544 16.9038 6.264 16.9038 5.944C16.9038 4.856 17.1518 3.888 17.6478 3.04C18.1438 2.176 18.8158 1.496 19.6638 0.999999C20.5278 0.503999 21.4958 0.256 22.5678 0.256C23.6558 0.256 24.5998 0.487999 25.3998 0.951999C26.1998 1.416 26.8158 2.072 27.2478 2.92C27.6958 3.768 27.9198 4.776 27.9198 5.944C27.9198 6.456 27.8078 6.976 27.5838 7.504C27.3758 8.032 27.1038 8.536 26.7678 9.016C26.4478 9.496 26.1198 9.928 25.7838 10.312L20.2878 16.552H27.0078C27.3598 16.552 27.6558 16.68 27.8958 16.936C28.1358 17.176 28.2558 17.456 28.2558 17.776C28.2558 18.112 28.1358 18.4 27.8958 18.64C27.6558 18.88 27.3598 19 27.0078 19H18.1278Z" fill="#4A90C5"/>
</svg>
